<?xml version="1.0" standalone="no"?>
<!DOCTYPE svg PUBLIC "-//W3C//DTD SVG 20010904//EN"
 "http://www.w3.org/TR/2001/REC-SVG-20010904/DTD/svg10.dtd">
<svg version="1.0" xmlns="http://www.w3.org/2000/svg"
 width="512.000000pt" height="512.000000pt" viewBox="0 0 512.000000 512.000000"
 preserveAspectRatio="xMidYMid meet">

<g transform="translate(0.000000,512.000000) scale(0.100000,-0.100000)"
fill="#000000" stroke="none">
<path d="M1429 3554 c-216 -118 -396 -214 -399 -214 -3 0 -18 28 -35 63 -44
92 -120 201 -173 248 -54 48 -154 99 -210 106 -45 6 -147 -18 -211 -50 -60
-30 -162 -132 -191 -191 -38 -79 -37 -196 3 -196 7 0 33 21 57 46 25 26 64 55
86 65 38 17 45 18 84 4 23 -8 54 -24 69 -34 36 -26 104 -130 135 -208 36 -88
86 -294 95 -390 6 -73 5 -83 -9 -77 -8 3 -51 15 -95 26 -107 27 -151 16 -218
-54 -54 -56 -77 -100 -77 -152 0 -44 9 -49 62 -35 91 25 226 -47 292 -155 53
-85 49 -122 -39 -419 -42 -142 -75 -265 -73 -274 7 -39 85 -36 203 8 49 18 81
22 173 21 108 0 115 -2 160 -31 47 -30 113 -61 130 -61 49 0 405 401 554 624
114 170 171 291 208 436 70 277 59 492 -40 805 -36 114 -116 291 -135 298 -6
3 -189 -91 -406 -209z m430 139 c81 -162 154 -415 170 -594 14 -146 1 -284
-39 -439 -46 -175 -117 -310 -268 -514 -120 -161 -356 -431 -439 -500 -39 -32
-48 -31 -146 26 -68 40 -69 40 -180 40 -98 1 -122 -3 -192 -27 -78 -27 -147
-37 -161 -22 -4 4 28 126 71 271 84 286 89 327 51 408 -50 103 -173 189 -275
192 -31 0 -64 -3 -74 -8 -14 -7 -17 -3 -17 26 0 70 96 181 167 192 41 7 128
-12 200 -44 24 -10 43 -16 43 -12 -6 146 -66 422 -115 531 -66 143 -134 216
-228 242 -47 13 -108 -15 -167 -75 -38 -40 -46 -44 -52 -29 -26 67 14 168 101
253 100 98 238 147 336 120 63 -18 151 -76 204 -136 48 -55 123 -176 147 -241
9 -24 19 -43 23 -43 3 0 186 99 406 219 220 121 401 220 402 220 2 1 16 -25
32 -56z"/>
<path d="M1282 3376 c-123 -68 -228 -128 -233 -133 -6 -6 -6 -27 1 -59 7 -27
17 -98 24 -159 l11 -110 65 -19 c97 -29 297 -27 407 2 142 38 137 33 130 128
-4 56 -18 120 -47 205 -39 121 -105 260 -125 266 -5 1 -110 -53 -233 -121z
m284 -3 c48 -104 94 -257 101 -339 7 -84 9 -81 -108 -114 -134 -37 -287 -37
-420 0 l-36 10 -8 83 c-3 45 -13 111 -20 147 -7 36 -11 67 -9 70 3 3 103 60
222 126 247 138 222 137 278 17z"/>
<path d="M1650 2851 c-32 -18 -201 -51 -263 -51 -57 0 -251 31 -291 46 -10 4
-15 -18 -20 -98 -4 -57 -15 -149 -25 -206 -16 -92 -16 -102 -2 -98 50 14 211
27 264 21 81 -9 181 -30 236 -49 24 -9 49 -16 56 -16 28 0 85 261 85 388 0 74
-6 82 -40 63z m20 -78 c0 -92 -46 -321 -70 -346 -4 -5 -23 -2 -43 7 -97 40
-279 61 -397 46 -50 -7 -94 -10 -96 -7 -3 2 2 42 10 88 8 46 17 123 21 172 4
48 10 87 14 87 3 0 52 -9 109 -20 132 -26 224 -24 337 5 123 31 115 34 115
-32z"/>
<path d="M1174 2405 c-79 -14 -143 -33 -161 -47 -6 -5 -26 -53 -44 -106 -19
-53 -77 -184 -130 -289 -52 -106 -94 -193 -92 -193 1 0 24 13 50 29 75 46 192
99 258 116 72 18 179 19 263 1 l63 -13 35 56 c41 65 188 360 183 366 -13 12
-149 67 -199 80 -69 18 -129 18 -226 0z m227 -21 c73 -21 169 -65 169 -76 0
-13 -166 -337 -185 -362 -13 -17 -20 -17 -78 -7 -150 26 -273 6 -421 -68 l-95
-48 34 61 c46 84 136 284 171 383 27 78 30 82 69 93 127 39 254 48 336 24z"/>
<path d="M3452 3674 c-154 -81 -420 -239 -518 -309 -89 -64 -168 -154 -209
-240 -39 -80 -79 -223 -90 -322 l-7 -62 -71 -21 c-179 -54 -267 -146 -267
-279 0 -47 3 -48 74 -26 58 18 155 19 210 4 58 -16 159 -116 199 -198 30 -62
32 -72 32 -177 0 -106 -1 -112 -28 -147 -40 -53 -93 -76 -210 -92 -116 -15
-171 -33 -237 -75 -121 -78 -172 -181 -155 -315 8 -71 28 -72 72 -6 22 33 46
56 78 71 41 20 57 22 148 17 56 -2 142 -10 192 -17 131 -18 190 -11 278 33 88
44 127 85 173 181 63 132 74 212 74 549 l0 297 150 0 150 0 0 -250 c0 -270 -2
-280 -54 -329 -14 -14 -26 -29 -26 -35 0 -6 31 -35 69 -64 38 -29 112 -98 166
-153 53 -55 102 -99 108 -96 26 11 497 429 497 442 0 7 -14 24 -31 36 -30 21
-32 21 -60 5 l-29 -17 0 238 0 239 91 123 c49 67 89 130 87 139 -3 14 -18 18
-86 20 l-82 3 0 309 c0 372 -8 355 130 258 l89 -63 3 -710 c3 -702 3 -711 25
-775 12 -36 36 -86 52 -112 36 -57 142 -138 180 -138 20 0 60 31 171 135 80
74 146 140 148 148 2 8 -11 26 -29 41 l-31 26 -35 -21 c-39 -24 -37 -25 -73
43 -19 36 -20 61 -20 692 0 731 -4 682 72 800 29 46 38 70 38 103 0 38 -3 43
-22 43 -29 0 -119 -42 -137 -63 -7 -10 -17 -17 -21 -17 -5 0 -77 47 -161 105
-84 58 -156 105 -160 105 -5 0 -115 -76 -246 -170 l-237 -170 -13 43 c-7 23
-28 71 -46 107 -26 53 -47 77 -110 128 -43 34 -85 62 -95 62 -9 0 -81 -34
-160 -76z m188 39 c114 -77 159 -136 205 -271 l21 -63 246 176 247 176 161
-111 162 -112 26 25 c28 25 103 67 122 67 23 0 9 -66 -25 -114 -19 -27 -44
-73 -55 -103 -19 -52 -20 -77 -20 -715 l0 -661 31 -53 c33 -59 47 -64 89 -34
l27 19 22 -23 21 -23 -141 -131 c-78 -73 -149 -132 -159 -132 -29 0 -112 63
-153 116 -20 27 -47 78 -60 114 -22 64 -22 74 -27 782 l-5 716 -99 71 c-100
70 -100 70 -128 53 l-28 -16 0 -323 0 -323 85 0 c47 0 85 -3 85 -7 -1 -5 -41
-62 -90 -128 l-90 -120 0 -252 c0 -236 1 -253 18 -253 10 0 27 7 39 15 19 13
23 13 43 -3 l23 -19 -243 -211 -242 -211 -93 97 c-51 53 -122 119 -158 146
l-66 50 30 34 c17 19 35 45 40 59 5 13 9 141 9 284 l0 259 -169 0 -170 0 -3
-327 c-3 -368 -10 -412 -77 -547 -43 -83 -109 -142 -198 -176 -52 -20 -69 -21
-163 -16 -58 4 -125 11 -150 16 -25 5 -83 9 -131 10 -109 0 -172 -28 -218 -96
l-30 -46 -7 37 c-35 186 117 337 373 370 134 18 186 42 231 110 l34 50 -4 106
c-3 98 -6 111 -41 181 -47 97 -142 189 -210 207 -63 15 -154 14 -213 -4 -27
-8 -50 -15 -51 -15 -11 0 1 83 16 115 33 74 147 149 267 176 l52 12 7 70 c10
105 48 244 89 325 67 133 161 214 456 392 94 57 397 219 410 220 3 0 17 -8 30
-17z"/>
<path d="M3328 3477 c-29 -13 -91 -93 -127 -164 -21 -41 -21 -53 -19 -355 l3
-312 63 92 63 92 100 0 99 0 0 273 0 272 -31 38 c-27 33 -95 78 -116 77 -4 -1
-20 -6 -35 -13z m94 -39 c15 -10 36 -30 48 -45 19 -24 20 -39 20 -284 l0 -259
-94 0 -95 0 -50 -72 -51 -72 0 286 0 287 60 90 c73 108 94 117 162 69z"/>
<path d="M3104 3335 c-27 -31 -61 -77 -76 -103 l-28 -47 0 -581 c0 -486 -2
-589 -15 -631 -16 -54 -74 -128 -138 -174 -38 -27 -38 -28 -16 -40 29 -15 118
-6 167 18 26 13 44 32 62 68 l25 50 5 660 c6 630 7 663 26 720 12 33 26 71 33
83 23 44 3 34 -45 -23z m-15 -87 c-11 -26 -15 -172 -19 -693 -5 -634 -6 -662
-25 -700 -24 -47 -75 -76 -148 -83 l-49 -5 56 53 c32 30 68 77 83 109 l28 56
5 600 c5 562 6 602 24 635 37 70 70 91 45 28z"/>
<path d="M3948 3318 l-88 -62 0 -218 0 -218 90 0 90 0 0 280 c0 154 -1 280 -2
280 -2 0 -42 -28 -90 -62z m72 -228 l0 -250 -70 0 -70 0 0 203 0 202 68 48
c37 26 68 47 69 47 2 0 3 -112 3 -250z"/>
<path d="M3862 2268 c3 -274 4 -296 24 -339 12 -26 27 -50 33 -54 18 -11 56 2
90 31 l31 26 0 314 0 314 -91 0 -90 0 3 -292z m158 -27 l0 -299 -31 -27 c-41
-34 -59 -29 -84 20 -18 37 -20 64 -23 323 l-3 282 70 0 71 0 0 -299z"/>
</g>
</svg>
